<?xml version="1.0" encoding="utf-8"?>
<!-- Generator: Adobe Illustrator 19.0.0, SVG Export Plug-In . SVG Version: 6.00 Build 0)  -->
<svg version="1.1" id="图层_1" xmlns="http://www.w3.org/2000/svg" xmlns:xlink="http://www.w3.org/1999/xlink" x="0px" y="0px"
	 viewBox="505 -100.1 1605 1041" style="enable-background:new 505 -100.1 1605 1041;" xml:space="preserve">
<style type="text/css">
	.st0{fill:none;stroke:#000000;stroke-width:8;stroke-miterlimit:10;}
	.st1{fill:#FFFFFF;stroke:#000000;stroke-width:2;stroke-miterlimit:10;}
	.st2{font-family:'MicrosoftYaHei';}
	.st3{font-size:18px;}
	.st4{enable-background:new    ;}
</style>
<polygon id="XMLID_43_" class="st0" points="770.1,892.4 1101.1,892.4 1113.1,878.1 1113.1,299.4 1944.1,299.4 1963.1,289.9 
	1963.1,280.4 1957.1,280.4 1957.1,190.4 1943.1,190.4 1943.1,182.4 1956.1,173.9 1956.1,121.4 1960.1,117.7 1960.1,107.4 
	1939.1,107.4 1939.1,83.4 1953.1,71.9 1953.1,-16.6 1958.1,-21.8 1958.1,-32.6 893.1,-32.6 878.1,-51.6 733.1,-51.6 733.1,-33.6 
	728.1,-33.6 728.1,192.4 793.1,192.4 793.1,215.4 770.1,215.4 "/>
<g>
	<rect id="XMLID_60_" x="1143.5" y="-28.6" class="st1" width="119" height="86"/>
	<text id="XMLID_17_" transform="matrix(1 0 0 1 1170.6569 19.8078)" class="st2 st3">讯问室3</text>
</g>
<g>
	<rect id="XMLID_61_" x="1277.1" y="-28.6" class="st1" width="119" height="86"/>
	<text id="XMLID_18_" transform="matrix(1 0 0 1 1302.6061 19.8078)" class="st2 st3">讯问室2</text>
</g>
<g>
	<rect id="XMLID_62_" x="1412.1" y="-28.6" class="st1" width="123" height="86"/>
	<text id="XMLID_19_" transform="matrix(1 0 0 1 1444.6061 19.8078)" class="st2 st3">讯问室1</text>
</g>
<g>
	<polygon id="XMLID_63_" class="st1" points="1547.1,-28.6 1875.1,-28.6 1875.1,-5.6 1940.1,-5.6 1940.5,77.3 1934.1,82.2 
		1934.1,110.4 1934.1,118.4 1943.1,118.4 1943.1,142.4 1821.1,142.4 1821.1,107.4 1670.1,107.4 1666.9,110.4 1547.1,110.4 	"/>
	<text id="XMLID_20_" transform="matrix(1 0 0 1 1705.2729 49.0086)" class="st2 st3">法制工作区</text>
</g>
<g>
	<polygon id="XMLID_65_" class="st1" points="1638.1,144.4 1688.1,144.4 1688.1,156.4 1813.1,156.4 1813.1,117.4 1804.1,117.4 
		1804.1,113.4 1687.1,113.4 1687.1,118.4 1638.1,118.4 	"/>
	<text id="XMLID_21_" transform="matrix(1 0 0 1 1713.6062 140.0086)" class="st2 st3">留置室</text>
</g>
<g>
	<rect id="XMLID_66_" x="1634.1" y="160.4" class="st1" width="179" height="59"/>
	<text id="XMLID_22_" transform="matrix(1 0 0 1 1695.2729 196.6752)" class="st2 st3">候问室1</text>
</g>
<g>
	<rect id="XMLID_64_" x="1634.1" y="225.4" class="st1" width="179" height="59"/>
	<text id="XMLID_23_" transform="matrix(1 0 0 1 1689.6062 261.3418)" class="st2 st3">候问室2</text>
</g>
<g>
	<rect id="XMLID_67_" x="1412.1" y="149.4" class="st1" width="128" height="135"/>
	<text id="XMLID_25_" transform="matrix(1 0 0 1 1433.6062 229.7353)" class="st2 st3">信息采集室</text>
</g>
<g>
	<rect id="XMLID_69_" x="1277.1" y="113.4" class="st1" width="121" height="171"/>
	<text id="XMLID_26_" transform="matrix(1 0 0 1 1292.6062 207.7353)" class="st2 st3">人身检查室</text>
</g>
<g>
	<polygon id="XMLID_58_" class="st1" points="1819.1,148.4 1945.1,148.4 1945.1,175.4 1938.1,180.7 1938.1,194.4 1952.1,194.4 
		1952.1,284.4 1827.1,284.4 1827.1,279.4 1819.1,279.4 	"/>
	<text id="XMLID_24_" transform="matrix(1 0 0 1 1854.6062 225.3892)" class="st2 st3">保安室</text>
</g>
<g>
	<polygon id="XMLID_46_" class="st1" points="804.1,216.4 1013.1,216.4 1013.1,182.4 871.1,182.4 871.1,191.4 804.1,191.4 	"/>
	<text id="XMLID_3_" transform="matrix(1 0 0 1 902.7728 205.8892)" class="st2 st3">机房</text>
</g>
<g>
	<rect id="XMLID_54_" x="773.1" y="225.4" class="st1" width="234" height="63"/>
	<text id="XMLID_4_" transform="matrix(1 0 0 1 841.9968 262.1392)" class="st2 st3">重案讯问室</text>
</g>
<g>
	<rect id="XMLID_53_" x="773.1" y="294.4" class="st1" width="116.5" height="69"/>
	<text id="XMLID_5_" transform="matrix(1 0 0 1 802.106 333.3892)" class="st2 st3">讯问室6</text>
</g>
<g>
	<rect id="XMLID_52_" x="773.1" y="369.4" class="st1" width="234" height="69"/>
	<text id="XMLID_9_" transform="matrix(1 0 0 1 855.1456 411.7225)" class="st2 st3">讯问室7</text>
</g>
<g>
	<rect id="XMLID_51_" x="773.1" y="444.4" class="st1" width="234" height="69"/>
	<text id="XMLID_10_" transform="matrix(1 0 0 1 852.3287 485.7225)" class="st2 st3">讯问室8 </text>
</g>
<g>
	<rect id="XMLID_50_" x="773.1" y="519.4" class="st1" width="234" height="69"/>
	<text id="XMLID_11_" transform="matrix(1 0 0 1 854.9917 558.3891)" class="st2 st3">讯问室9</text>
</g>
<g>
	<rect id="XMLID_49_" x="773.1" y="594.4" class="st1" width="234" height="69"/>
	<text id="XMLID_12_" transform="matrix(1 0 0 1 851.5286 634.3891)" class="st2 st3">讯问室10</text>
</g>
<g>
	<rect id="XMLID_48_" x="773.1" y="669.4" class="st1" width="234" height="69"/>
	<text id="XMLID_13_" transform="matrix(1 0 0 1 841.9968 709.3891)" class="st2 st3">特殊讯问室</text>
</g>
<g>
	<rect id="XMLID_47_" x="773.1" y="744.4" class="st1" width="234" height="69"/>
	<text id="XMLID_14_" transform="matrix(1 0 0 1 856.5341 785.0556)" class="st2 st3">询问室1</text>
</g>
<g>
	<rect id="XMLID_45_" x="773.1" y="819.4" class="st1" width="234" height="69"/>
	<text id="XMLID_15_" transform="matrix(1 0 0 1 854.9915 864.7225)" class="st2 st3">询问室2</text>
</g>
<g>
	<rect id="XMLID_6_" x="890.6" y="294.4" class="st1" width="116.5" height="69"/>
	<text id="XMLID_7_" transform="matrix(1 0 0 1 920.4393 333.3888)" class="st2 st3">辨认室</text>
</g>
<g>
	<rect id="XMLID_59_" x="1009.1" y="-28.6" class="st1" width="119" height="86"/>
	<text id="XMLID_8_" transform="matrix(1 0 0 1 1036.3188 19.8077)" class="st2 st3">讯问室4</text>
</g>
<g>
	<rect id="XMLID_57_" x="878.1" y="-28.6" class="st1" width="119" height="86"/>
	<text id="XMLID_16_" transform="matrix(1 0 0 1 910.3188 19.8078)" class="st2 st3">讯问室5</text>
</g>
<g>
	<polygon id="XMLID_55_" class="st1" points="872.1,175.4 1013.1,175.4 1013.1,117.4 976.1,117.4 976.1,112.4 879.1,112.4 
		879.1,118.4 872.1,118.4 	"/>
	<text id="XMLID_2_" transform="matrix(1 0 0 1 914.3188 140.8902)" class="st4"><tspan x="0" y="0" class="st2 st3">卫生间</tspan><tspan x="0" y="21.6" class="st2 st3">尿检室</tspan></text>
</g>
<g>
	<rect id="XMLID_56_" x="732.1" y="-47.6" class="st1" width="136" height="232"/>
	<text id="XMLID_1_" transform="matrix(1 0 0 1 767.2728 77.6752)" class="st2 st3">指挥室</text>
</g>
<g>
	<rect id="XMLID_70_" x="1144.1" y="114.4" class="st1" width="121" height="171"/>
	<text id="XMLID_27_" transform="matrix(1 0 0 1 1174.6062 191.7353)" class="st4"><tspan x="0" y="0" class="st2 st3">等候区</tspan><tspan x="0" y="21.6" class="st2 st3">待检室</tspan></text>
</g>
</svg>
